<svg preserveAspectRatio="none" width="100%" height="100%" overflow="visible" style="display: block;" viewBox="0 0 16.5 15.6667" fill="none" xmlns="http://www.w3.org/2000/svg">
<path id="Vector" d="M5.52417 6.79167L10.9408 4.29167M5.52417 8.875L10.9408 11.375M15.75 3.25C15.75 3.91304 15.4866 4.54893 15.0178 5.01777C14.5489 5.48661 13.913 5.75 13.25 5.75C12.587 5.75 11.9511 5.48661 11.4822 5.01777C11.0134 4.54893 10.75 3.91304 10.75 3.25C10.75 2.58696 11.0134 1.95107 11.4822 1.48223C11.9511 1.01339 12.587 0.75 13.25 0.75C13.913 0.75 14.5489 1.01339 15.0178 1.48223C15.4866 1.95107 15.75 2.58696 15.75 3.25ZM5.75 7.83333C5.75 8.49637 5.48661 9.13226 5.01777 9.6011C4.54893 10.0699 3.91304 10.3333 3.25 10.3333C2.58696 10.3333 1.95107 10.0699 1.48223 9.6011C1.01339 9.13226 0.75 8.49637 0.75 7.83333C0.75 7.17029 1.01339 6.53441 1.48223 6.06557C1.95107 5.59673 2.58696 5.33333 3.25 5.33333C3.91304 5.33333 4.54893 5.59673 5.01777 6.06557C5.48661 6.53441 5.75 7.17029 5.75 7.83333ZM15.75 12.4167C15.75 13.0797 15.4866 13.7156 15.0178 14.1844C14.5489 14.6533 13.913 14.9167 13.25 14.9167C12.587 14.9167 11.9511 14.6533 11.4822 14.1844C11.0134 13.7156 10.75 13.0797 10.75 12.4167C10.75 11.7536 11.0134 11.1177 11.4822 10.6489C11.9511 10.1801 12.587 9.91667 13.25 9.91667C13.913 9.91667 14.5489 10.1801 15.0178 10.6489C15.4866 11.1177 15.75 11.7536 15.75 12.4167Z" stroke="var(--stroke-0, #5C60CC)" stroke-width="1.5"/>
</svg>
