<svg preserveAspectRatio="none" width="100%" height="100%" overflow="visible" style="display: block;" viewBox="0 0 18.2929 18.2929" fill="none" xmlns="http://www.w3.org/2000/svg">
<g id="Group">
<path id="Vector" d="M9.14646 17.6548C13.8455 17.6548 17.6548 13.8455 17.6548 9.14646C17.6548 4.44744 13.8455 0.638125 9.14646 0.638125C4.44744 0.638125 0.638125 4.44744 0.638125 9.14646C0.638125 13.8455 4.44744 17.6548 9.14646 17.6548Z" stroke="var(--stroke-0, #EDF4F8)" stroke-width="1.27625" stroke-linecap="round" stroke-linejoin="round"/>
<path id="Vector_2" d="M7.01937 7.01938C7.01951 6.65293 7.11431 6.29274 7.29459 5.97371C7.47487 5.65468 7.73451 5.38763 8.04835 5.19845C8.36219 5.00928 8.71957 4.90439 9.08587 4.89395C9.45216 4.88351 9.81494 4.96788 10.139 5.13887C10.4631 5.30987 10.7376 5.5617 10.9357 5.86995C11.1339 6.17819 11.249 6.5324 11.27 6.89824C11.291 7.26409 11.2172 7.62915 11.0556 7.95805C10.894 8.28695 10.6502 8.56853 10.3478 8.7755C9.76586 9.17369 9.14646 9.71822 9.14646 10.4227" stroke="var(--stroke-0, #EDF4F8)" stroke-width="1.27625" stroke-linecap="round" stroke-linejoin="round"/>
<path id="Vector_3" d="M9.14646 13.4006H9.15412" stroke="var(--stroke-0, #EDF4F8)" stroke-width="1.5315" stroke-linecap="round" stroke-linejoin="round"/>
</g>
</svg>
